# xmcd
#
# Track frame offsets:
#	150
#	22705
#	41818
#	59689
#	82577
#	101434
#	123333
#	146300
#	163976
#	180639
#	200942
#	225289
#
# Disc length: 3459 seconds
#
# Revision: 0
# Processed by: cddbd v1.5.2PL0 Copyright (c) Steve Scherf et al.
# Submitted via: dBpowerAMP V4.0
#
DISCID=960d810c
DTITLE=Sonic X - Sonic X
DYEAR=2007
DGENRE=
TTITLE0=Crawl
TTITLE1=Wicked
TTITLE2=Carried Away
TTITLE3=If Only
TTITLE4=My Condition
TTITLE5=Alive
TTITLE6=Seeds Of Thunder
TTITLE7=Evident
TTITLE8=Shine
TTITLE9=Disgrace
TTITLE10=Breathe
TTITLE11=Shine
EXTD=
EXTT0=
EXTT1=
EXTT2=
EXTT3=
EXTT4=
EXTT5=
EXTT6=
EXTT7=
EXTT8=
EXTT9=
EXTT10=
EXTT11=
PLAYORDER=
